<svg width="52" height="50" viewBox="0 0 52 50" fill="none" xmlns="http://www.w3.org/2000/svg">
<g filter="url(#filter0_d)">
<path d="M44.6587 15.2464H43.0931L36.0835 2.32603C35.7499 1.71126 34.9696 1.47737 34.3406 1.80297C33.7115 2.12892 33.4719 2.8915 33.8054 3.50626L40.1748 15.2462H12.0122L18.3816 3.50626C18.7151 2.8915 18.4755 2.12892 17.8464 1.80297C17.2174 1.47711 16.437 1.71126 16.1035 2.32603L9.09394 15.2464H7.34134C5.49892 15.2464 4 16.7112 4 18.5118C4 20.3123 5.49892 21.7771 7.34134 21.7771H7.43406C7.4369 21.7951 7.43905 21.8132 7.44231 21.8312L10.1308 36.5632C10.6364 39.3333 13.093 41.3439 15.9723 41.3439H36.2145C39.0938 41.3439 41.5506 39.3333 42.056 36.5632L44.7445 21.8312C44.7479 21.8124 44.7503 21.7936 44.7532 21.7749C46.5519 21.7256 47.9999 20.2813 47.9999 18.5118C48 16.7111 46.5011 15.2464 44.6587 15.2464ZM39.5179 36.1208C39.232 37.6873 37.8428 38.8243 36.2146 38.8243H15.9724C14.3442 38.8243 12.955 37.6874 12.6691 36.1208L10.0516 21.7771H42.1355L39.5179 36.1208ZM44.6587 19.2574H7.34134C6.92059 19.2574 6.57838 18.9229 6.57838 18.5118C6.57838 18.1006 6.92059 17.7661 7.34134 17.7661H44.6587C45.0793 17.7661 45.4216 18.1005 45.4216 18.5118C45.4216 18.9229 45.0794 19.2574 44.6587 19.2574Z" fill="white"/>
<path d="M25.9443 23.5251C25.2323 23.5251 24.6552 24.0893 24.6552 24.785V35.8164C24.6552 36.5122 25.2324 37.0763 25.9443 37.0763C26.6563 37.0763 27.2334 36.5122 27.2334 35.8164V24.785C27.2334 24.0892 26.6563 23.5251 25.9443 23.5251Z" fill="white"/>
<path d="M21.5458 35.6072L19.6445 24.5758C19.5264 23.8896 18.8605 23.427 18.1591 23.5426C17.457 23.6582 16.9837 24.3081 17.102 24.9943L19.0033 36.0257C19.1094 36.6411 19.6552 37.0765 20.273 37.0765C20.3441 37.0765 20.4162 37.0708 20.4886 37.0589C21.1908 36.9433 21.6641 36.2934 21.5458 35.6072Z" fill="white"/>
<path d="M33.6394 23.5426C32.9381 23.4276 32.2724 23.8895 32.154 24.5757L30.2527 35.6072C30.1345 36.2933 30.6078 36.9432 31.3099 37.0589C31.3824 37.0708 31.4544 37.0765 31.5255 37.0765C32.1434 37.0765 32.6892 36.641 32.7952 36.0257L34.6964 24.9942C34.8149 24.3081 34.3415 23.6581 33.6394 23.5426Z" fill="white"/>
</g>
<defs>
<filter id="filter0_d" x="0" y="0" width="52" height="51" filterUnits="userSpaceOnUse" color-interpolation-filters="sRGB">
<feFlood flood-opacity="0" result="BackgroundImageFix"/>
<feColorMatrix in="SourceAlpha" type="matrix" values="0 0 0 0 0 0 0 0 0 0 0 0 0 0 0 0 0 0 127 0"/>
<feOffset dy="4"/>
<feGaussianBlur stdDeviation="2"/>
<feColorMatrix type="matrix" values="0 0 0 0 0 0 0 0 0 0 0 0 0 0 0 0 0 0 0.25 0"/>
<feBlend mode="normal" in2="BackgroundImageFix" result="effect1_dropShadow"/>
<feBlend mode="normal" in="SourceGraphic" in2="effect1_dropShadow" result="shape"/>
</filter>
</defs>
</svg>
