<svg width="60" height="53" viewBox="0 0 60 53" fill="none" xmlns="http://www.w3.org/2000/svg">
<g clip-path="url(#clip0)">
<path d="M8.45566 39.2474C8.74852 39.3999 9.05672 39.5254 9.375 39.6247V53C8.13023 52.6916 6.21973 52.0779 4.44949 50.7924C1.49695 48.6486 0 45.5037 0 41.4452V31.6846C0.666797 32.6469 1.42488 33.5765 2.27332 34.4673C5.08277 37.4166 7.91625 38.9667 8.45566 39.2474Z" fill="white"/>
<path d="M18.1641 39.8924C18.1641 40.8615 18.4169 41.7793 18.8671 42.5975L12.8906 44.436V39.6261L18.1641 38.0038V39.8924Z" fill="white"/>
<path d="M32.2266 33.6778L60 25.1338V29.9437L32.2266 38.4877V33.6778Z" fill="white"/>
<path d="M25.1953 46.1033C28.2805 46.1033 30.9061 44.3381 31.8506 41.8918L60 33.2321V37.3044C60 37.9651 59.5267 38.5534 58.8204 38.7707L12.8906 52.9V47.7243L21.3886 45.1102C22.4866 45.7374 23.7932 46.1033 25.1953 46.1033Z" fill="white"/>
<path d="M39.8438 12.9394C39.8438 16.6495 36.4267 19.6679 32.2266 19.6679C28.0264 19.6679 24.6094 16.6495 24.6094 12.9394C24.6094 9.72182 27.18 7.02606 30.6019 6.36657C31.0937 3.79762 32.9279 1.57762 35.6332 0.382742L36.1281 0.16422C36.996 -0.219202 38.0521 0.0916558 38.4864 0.858603C38.9205 1.62555 38.5686 2.55833 37.7003 2.94175L37.2054 3.16027C35.6808 3.83375 34.6001 5.02956 34.1795 6.43602C37.4362 7.19976 39.8438 9.82544 39.8438 12.9394Z" fill="white"/>
<path d="M0 20.7421C0 20.3133 0.116367 10.182 10.2404 4.91213C10.6862 4.68005 11.225 4.63336 11.7135 4.78429C13.1907 5.241 17.2983 6.50472 22.5298 8.11325C21.6162 9.5399 21.0938 11.1867 21.0938 12.9395C21.0938 18.3619 26.0879 22.7734 32.2266 22.7734C37.7739 22.7734 42.3861 19.1708 43.2233 14.4752C50.4128 16.6858 56.5283 18.5671 58.8229 19.2765C59.5284 19.4946 60.0006 20.083 60 20.7433C59.9994 21.4035 59.5262 21.9913 58.8204 22.2084L28.7109 31.4708V39.8923C28.7109 41.6075 27.137 42.9978 25.1953 42.9978C23.2536 42.9978 21.6797 41.6075 21.6797 39.8923V33.6338L11.711 36.7004C11.523 36.7584 11.3277 36.7869 11.1329 36.7869C10.8225 36.7869 10.5138 36.7142 10.2404 36.5719C9.82219 36.3543 0 31.122 0 20.7421ZM18.75 21.7772C19.7208 21.7772 20.5078 21.082 20.5078 20.2245C20.5078 19.367 19.7208 18.6717 18.75 18.6717C17.7792 18.6717 16.9922 19.367 16.9922 20.2245C16.9922 21.082 17.7792 21.7772 18.75 21.7772ZM15.2344 29.0233C16.2052 29.0233 16.9922 28.3281 16.9922 27.4706C16.9922 26.613 16.2052 25.9178 15.2344 25.9178C14.2636 25.9178 13.4766 26.613 13.4766 27.4706C13.4766 28.3281 14.2636 29.0233 15.2344 29.0233ZM11.7188 15.5663C12.6895 15.5663 13.4766 14.8711 13.4766 14.0135C13.4766 13.156 12.6895 12.4608 11.7188 12.4608C10.748 12.4608 9.96094 13.156 9.96094 14.0135C9.96094 14.8711 10.748 15.5663 11.7188 15.5663ZM9.375 22.8124C10.3458 22.8124 11.1328 22.1172 11.1328 21.2596C11.1328 20.4021 10.3458 19.7069 9.375 19.7069C8.40422 19.7069 7.61719 20.4021 7.61719 21.2596C7.61719 22.1172 8.40422 22.8124 9.375 22.8124Z" fill="white"/>
</g>
<defs>
<clipPath id="clip0">
<rect width="60" height="53" fill="white" transform="matrix(-1 0 0 1 60 0)"/>
</clipPath>
</defs>
</svg>
