<svg width="107" height="96" viewBox="0 0 107 96" fill="none" xmlns="http://www.w3.org/2000/svg">
<g clip-path="url(#clip0)">
<path d="M53.1431 93.8823C49.4157 93.8823 45.6904 93.2083 42.2403 91.862L25.7435 85.4279C19.7753 83.0987 13.4649 81.6236 6.98784 81.0426L1.57037 80.5566C0.678431 80.4769 0 79.8038 0 79V63.7533C0 63.4149 0.122716 63.0855 0.349193 62.8152C0.754256 62.3291 10.4638 50.9485 25.2955 53.9096C33.6372 55.5727 40.3537 58.6851 44.5191 61.0034C47.5431 62.6863 51.0879 63.5751 54.7704 63.5751H71.2672C74.1106 63.5751 76.6099 64.925 78.0076 66.9498L92.2158 52.2634C94.9704 48.9631 99.477 46.9419 104.195 46.9419H105.257C105.846 46.9419 106.395 47.2086 106.716 47.6508C107.039 48.093 107.089 48.6525 106.853 49.1358L94.0026 75.338C91.1931 81.0686 85.4724 85.3974 78.701 86.9165L76.4403 87.4231L63.2887 92.1431C60.0522 93.3041 56.5971 93.8823 53.1431 93.8823ZM3.48794 77.5839L7.33504 77.9294C14.1722 78.5425 20.8338 80.101 27.1353 82.559L43.6311 88.9931C49.4317 91.256 56.1212 91.3446 61.9947 89.2366L75.254 84.4781C75.3278 84.4522 75.4027 84.4307 75.4795 84.4137L77.855 83.8802C83.5887 82.5939 88.4325 78.9292 90.81 74.0777L102.531 50.1787C99.5299 50.5752 96.7683 52.0262 94.9285 54.2264L79.1889 70.5016C79.1909 70.5625 79.1919 70.6225 79.1919 70.6842C79.1919 74.604 75.6371 77.7933 71.2682 77.7933H48.2514C45.2594 77.7933 42.3022 78.2239 39.4638 79.0725L38.8232 77.6134L38.2815 76.1266L38.3703 76.1006C41.5559 75.1482 44.8832 74.664 48.2514 74.664H71.2682C73.7136 74.664 75.705 72.8782 75.705 70.6833C75.705 68.4885 73.7146 66.7027 71.2682 66.7027H54.7714C50.4384 66.7027 46.258 65.6509 42.6823 63.6611C38.7474 61.4707 32.4041 58.532 24.5413 56.9628C13.3092 54.7277 5.22691 62.4616 3.48893 64.3065V77.5839H3.48794Z" fill="white"/>
<path d="M68.6712 46.5884C65.9894 46.5884 62.9824 45.8454 59.672 44.3604C59.271 44.1796 58.9617 43.8663 58.81 43.4876C58.6753 43.1484 55.5595 35.1075 60.5111 29.1611C64.1098 24.8386 70.8761 22.8917 80.6336 23.3795C81.5235 23.4234 82.2329 24.0634 82.2768 24.8636C82.3117 25.4849 83.031 40.1479 74.6973 45.03C72.9254 46.0692 70.912 46.5884 68.6712 46.5884ZM61.8959 41.8496C66.4763 43.7768 70.1378 43.9656 72.7917 42.4108C77.7333 39.5151 78.8018 30.9192 78.8277 26.4453C71.1824 26.2779 65.9775 27.8238 63.3046 31.0329C60.124 34.8542 61.3601 40.1103 61.8959 41.8496Z" fill="white"/>
<path d="M42.0049 26.091C38.913 26.091 35.3463 25.4966 32.2335 23.4513C26.9537 19.98 24.5273 13.3713 25.0201 3.80951C25.0621 3.01016 25.7684 2.36746 26.6594 2.32002C27.4136 2.28153 45.2663 1.42668 51.2734 9.51684C54.071 13.2826 53.8415 18.2148 50.594 24.179C50.3965 24.5415 50.0513 24.8217 49.6292 24.9605C49.3948 25.0383 46.1214 26.091 42.0049 26.091ZM49.0276 23.4924H49.0446H49.0276ZM28.4522 5.39836C28.3016 13.0571 30.264 18.2774 34.2937 20.927C39.1186 24.0984 45.7063 22.7504 47.7775 22.2088C50.1471 17.5954 50.3476 13.9119 48.3722 11.2516C44.7006 6.30691 33.9335 5.34018 28.4522 5.39836Z" fill="white"/>
<path d="M55.6224 66.1532C55.5675 66.1532 55.5126 66.1505 55.4568 66.146C54.5279 66.0673 53.8325 65.3467 53.8794 64.5097C53.9822 62.6694 54.1578 60.9239 54.3962 59.2697C55.1215 48.1987 54.7474 22.4173 36.5794 15.2849C35.6975 14.9385 35.2944 14.0165 35.6805 13.2244C36.0656 12.434 37.0962 12.0732 37.9772 12.4187C48.6834 16.6214 55.4189 27.0845 57.4512 42.6767C57.6337 44.074 57.7704 45.4516 57.8722 46.7934C62.6571 35.9454 69.9772 32.1124 70.4132 31.8931C71.2513 31.4679 72.3148 31.7383 72.7877 32.4893C73.2576 33.2412 72.9623 34.1927 72.1272 34.617C71.9427 34.7137 60.7176 40.7576 57.9001 59.3959C57.6856 62.5843 57.3763 64.6172 57.3474 64.8033C57.2267 65.5839 56.4834 66.1532 55.6224 66.1532Z" fill="white"/>
</g>
<defs>
<clipPath id="clip0">
<rect width="107" height="96" fill="white"/>
</clipPath>
</defs>
</svg>
