<svg width="120" height="117" viewBox="0 0 120 117" fill="none" xmlns="http://www.w3.org/2000/svg">
<path d="M116.25 56.6718H100.151L117.576 39.6831C118.309 38.9683 118.309 37.8129 117.576 37.0981L81.9506 2.36373C81.2175 1.64894 80.0325 1.64894 79.2994 2.36373L23.5988 56.6718H3.75C2.71313 56.6718 1.875 57.4908 1.875 58.5V106.031C1.875 107.04 2.71313 107.859 3.75 107.859H31.0988L38.0494 114.636C38.415 114.993 38.895 115.172 39.375 115.172C39.855 115.172 40.335 114.993 40.7006 114.636L47.6531 107.859H116.25C117.287 107.859 118.125 107.04 118.125 106.031V58.5C118.125 57.4908 117.287 56.6718 116.25 56.6718ZM80.625 6.24119L113.599 38.3906L94.8487 56.6718H80.5331C80.1038 51.9918 78.0338 47.6446 74.5837 44.2808C66.5437 36.4418 53.4581 36.44 45.4144 44.2808C41.9663 47.6446 39.8963 51.9918 39.465 56.6718H28.8994L80.625 6.24119ZM51.0506 56.6718C50.7956 55.4836 51.1369 54.213 52.0444 53.33L55.4738 56.6718H51.0506ZM71.2781 56.6718C71.0719 56.4068 70.8506 56.1508 70.6069 55.915C67.68 53.065 62.925 53.0631 60 55.915L54.6956 50.7451C56.1131 49.3648 58.5806 49.3648 59.9981 50.7451L62.6494 48.1601C61.2319 46.7799 59.3494 46.0194 57.3469 46.0194C55.3444 46.0194 53.46 46.7799 52.0444 48.1601L52.0425 48.1619L50.7169 46.8694L48.0656 49.4544L49.3912 50.7469C47.7431 52.3538 47.0137 54.5311 47.2481 56.6755H43.2337C43.6519 52.9736 45.3244 49.5422 48.0638 46.8694C54.645 40.4546 65.3494 40.4564 71.9306 46.8694C74.67 49.5422 76.3444 52.9736 76.7606 56.6755H71.2781V56.6718ZM39.375 110.759L36.4012 107.859H42.3488L39.375 110.759ZM114.375 104.203H5.625V60.3281H114.375V104.203Z" fill="white"/>
<path d="M54.375 87.75H50.625C50.625 91.7828 53.9887 95.0625 58.125 95.0625V96.8906H61.875V95.0625C66.0113 95.0625 69.375 91.7828 69.375 87.75C69.375 83.7172 66.0113 80.4375 61.875 80.4375V73.125C63.9431 73.125 65.625 74.7648 65.625 76.7812H69.375C69.375 72.7484 66.0113 69.4688 61.875 69.4688V67.6406H58.125V69.4688C53.9887 69.4688 50.625 72.7484 50.625 76.7812C50.625 80.8141 53.9887 84.0938 58.125 84.0938V91.4062C56.0569 91.4062 54.375 89.7664 54.375 87.75ZM54.375 76.7812C54.375 74.7648 56.0569 73.125 58.125 73.125V80.4375C56.0569 80.4375 54.375 78.7977 54.375 76.7812ZM61.875 84.0938C63.9431 84.0938 65.625 85.7336 65.625 87.75C65.625 89.7664 63.9431 91.4062 61.875 91.4062V84.0938Z" fill="white"/>
<path d="M60 102.375C71.3719 102.375 80.625 93.3532 80.625 82.2656C80.625 71.178 71.3719 62.1562 60 62.1562C48.6281 62.1562 39.375 71.178 39.375 82.2656C39.375 93.3532 48.6281 102.375 60 102.375ZM60 65.8125C69.3056 65.8125 76.875 73.1945 76.875 82.2656C76.875 91.3368 69.3056 98.7188 60 98.7188C50.6944 98.7188 43.125 91.3368 43.125 82.2656C43.125 73.1945 50.6944 65.8125 60 65.8125Z" fill="white"/>
<path d="M110.625 98.7188V65.8125C110.625 64.8034 109.787 63.9844 108.75 63.9844H86.25V67.6406H106.875V96.8906H86.25V100.547H108.75C109.787 100.547 110.625 99.7279 110.625 98.7188Z" fill="white"/>
<path d="M11.25 100.547H33.75V96.8906H13.125V67.6406H33.75V63.9844H11.25C10.2131 63.9844 9.375 64.8034 9.375 65.8125V98.7188C9.375 99.7279 10.2131 100.547 11.25 100.547Z" fill="white"/>
<path d="M86.25 89.5781H90V93.2344H86.25V89.5781Z" fill="white"/>
<path d="M93.75 89.5781H97.5V93.2344H93.75V89.5781Z" fill="white"/>
<path d="M86.25 71.2969H90V74.9531H86.25V71.2969Z" fill="white"/>
<path d="M93.75 71.2969H97.5V74.9531H93.75V71.2969Z" fill="white"/>
<path d="M81.135 17.21L102.347 37.8934L87.7631 52.1125L90.4144 54.6975L106.324 39.1859C107.057 38.4711 107.057 37.3157 106.324 36.6009L82.4606 13.3325C81.7575 12.647 80.5125 12.647 79.8094 13.3325L63.9 28.8442L66.5512 31.4291L81.135 17.21Z" fill="white"/>
<path d="M82.4492 46.9458L85.1008 44.3604L87.7525 46.9458L85.1008 49.5312L82.4492 46.9458Z" fill="white"/>
<path d="M87.7504 41.7749L90.402 39.1895L93.0537 41.7749L90.402 44.3603L87.7504 41.7749Z" fill="white"/>
<path d="M69.1927 34.0205L71.8444 31.4351L74.4961 34.0205L71.8444 36.6059L69.1927 34.0205Z" fill="white"/>
<path d="M74.4939 28.8496L77.1456 26.2642L79.7972 28.8496L77.1456 31.435L74.4939 28.8496Z" fill="white"/>
<path d="M22.5 71.2969H26.25V74.9531H22.5V71.2969Z" fill="white"/>
<path d="M30 71.2969H33.75V74.9531H30V71.2969Z" fill="white"/>
<path d="M22.5 89.5781H26.25V93.2344H22.5V89.5781Z" fill="white"/>
<path d="M30 89.5781H33.75V93.2344H30V89.5781Z" fill="white"/>
</svg>
