<svg width="157" height="159" viewBox="0 0 157 159" fill="none" xmlns="http://www.w3.org/2000/svg">
<path d="M127.637 107.043H127.661C128.932 107.043 129.949 108.086 129.949 109.372C129.949 110.659 128.907 111.701 127.637 111.701C126.367 111.701 125.337 110.659 125.337 109.372C125.337 108.086 126.367 107.043 127.637 107.043Z" fill="white"/>
<path d="M107.972 107.043H107.997C109.267 107.043 110.284 108.086 110.284 109.372C110.284 110.659 109.242 111.701 107.972 111.701C106.702 111.701 105.672 110.659 105.672 109.372C105.672 108.086 106.702 107.043 107.972 107.043Z" fill="white"/>
<path d="M26.8556 107.043H26.8801C28.1502 107.043 29.1677 108.086 29.1677 109.372C29.1677 110.659 28.1257 111.701 26.8556 111.701C25.5855 111.701 24.5558 110.659 24.5558 109.372C24.5558 108.086 25.5855 107.043 26.8556 107.043Z" fill="white"/>
<path d="M2.11337 78.884L5.20554 75.7525L11.435 56.8259C10.5055 56.5268 9.83183 55.6464 9.83183 54.6064C9.83183 53.3201 10.8615 52.2773 12.1317 52.2773H34.4125V42.1603C34.4125 39.5032 36.5467 37.3418 39.1703 37.3418H152.242C154.866 37.3418 157 39.5035 157 42.1603V96.9265C157 99.5836 154.866 101.745 152.242 101.745H149.626V106.883C149.626 109.54 147.492 111.701 144.868 111.701H139.572C138.494 117.366 133.565 121.659 127.661 121.659C123.619 121.659 120.035 119.644 117.829 116.557C115.623 119.644 112.039 121.659 107.997 121.659C102.094 121.659 97.1642 117.366 96.0863 111.701H38.791C37.7129 117.366 32.7836 121.659 26.8805 121.659C20.1908 121.659 14.7485 116.147 14.7485 109.372C14.7485 109.319 14.7519 109.266 14.7525 109.213H4.75784C2.13422 109.213 0 107.052 0 104.395V84.0512C-0.000305176 82.0995 0.750351 80.2644 2.11337 78.884ZM139.572 107.043H144.868C144.955 107.043 145.026 106.972 145.026 106.883V101.745H137.162C138.352 103.263 139.196 105.069 139.572 107.043ZM127.661 117.001C131.815 117.001 135.194 113.579 135.194 109.373C135.194 105.182 131.84 101.771 127.708 101.745H127.614C123.482 101.771 120.129 105.182 120.129 109.373C120.129 113.579 123.508 117.001 127.661 117.001ZM107.997 117.001C112.15 117.001 115.529 113.579 115.529 109.373C115.529 105.182 112.175 101.771 108.044 101.745H107.949C103.818 101.771 100.464 105.182 100.464 109.373C100.464 113.579 103.843 117.001 107.997 117.001ZM38.7907 107.043H96.086C96.4617 105.069 97.3058 103.262 98.4959 101.745H53.9192C52.6491 101.745 51.6194 100.702 51.6194 99.4159C51.6194 98.1296 52.6491 97.0868 53.9192 97.0868H152.242C152.33 97.0868 152.4 97.015 152.4 96.9265V42.1603C152.4 42.0717 152.33 42 152.242 42H39.1707C39.0833 42 39.0124 42.0717 39.0124 42.1603V97.0871H44.0858C45.3559 97.0871 46.3856 98.1299 46.3856 99.4162C46.3856 100.702 45.3559 101.745 44.0858 101.745H36.3811C37.5712 103.263 38.4151 105.069 38.7907 107.043ZM9.58714 77.1708H24.4221C24.5095 77.1708 24.5804 77.099 24.5804 77.0105V66.8926H12.97L9.58714 77.1708ZM26.8802 117.001C31.0336 117.001 34.4125 113.579 34.4125 109.373C34.4125 105.182 31.0588 101.771 26.9271 101.745H26.8799C26.8746 101.745 26.8694 101.745 26.8639 101.744C22.7178 101.753 19.3472 105.172 19.3472 109.372C19.3478 113.579 22.7267 117.001 26.8802 117.001ZM4.59932 104.395C4.59932 104.484 4.67015 104.555 4.75754 104.555H15.7206C17.5742 100.168 21.8779 97.0862 26.8802 97.0862C26.8961 97.0862 26.9115 97.0874 26.9274 97.0874H34.4125V57.0967V57.0954C34.4125 57.0069 34.3417 56.9352 34.2543 56.9352H16.2474L14.5032 62.2344H26.8802C28.1503 62.2344 29.18 63.2772 29.18 64.5635V77.0105C29.18 79.6676 27.0458 81.829 24.4221 81.829H5.71027L5.3656 82.178C4.87161 82.6786 4.59932 83.3438 4.59932 84.0516V89.6191H7.21558C8.48569 89.6191 9.5154 90.6619 9.5154 91.9482C9.5154 93.2345 8.48569 94.2773 7.21558 94.2773H4.59932V104.395Z" fill="white"/>
<path d="M46.5451 87.1294H144.868C146.138 87.1294 147.168 88.1722 147.168 89.4585C147.168 90.7448 146.138 91.7876 144.868 91.7876H46.5451C45.275 91.7876 44.2453 90.7448 44.2453 89.4585C44.2453 88.1722 45.275 87.1294 46.5451 87.1294Z" fill="white"/>
</svg>
